<mxfile host="app.diagrams.net" modified="2023-03-07T12:11:38.364Z" agent="5.0 (Windows NT 10.0; Win64; x64) AppleWebKit/537.36 (KHTML, like Gecko) Chrome/110.0.0.0 Safari/537.36" etag="znC1pMRMBMRHNeJJ88CG" version="20.8.21" type="github">
  <diagram name="페이지-1" id="e-0YLt9V1Vn9EAbWaR6J">
    <mxGraphModel dx="1807" dy="713" grid="1" gridSize="10" guides="1" tooltips="1" connect="1" arrows="1" fold="1" page="1" pageScale="1" pageWidth="827" pageHeight="1169" math="0" shadow="0">
      <root>
        <mxCell id="0" />
        <mxCell id="1" parent="0" />
        <mxCell id="v0IKyYrfHl6AA_qtvxN0-1" value="" style="rounded=0;whiteSpace=wrap;html=1;" vertex="1" parent="1">
          <mxGeometry y="120" width="640" height="200" as="geometry" />
        </mxCell>
        <mxCell id="v0IKyYrfHl6AA_qtvxN0-2" value="&lt;br&gt;&lt;br&gt;확장점&lt;br&gt;금액을 입력" style="ellipse;whiteSpace=wrap;html=1;" vertex="1" parent="1">
          <mxGeometry x="80" y="170" width="180" height="90" as="geometry" />
        </mxCell>
        <mxCell id="v0IKyYrfHl6AA_qtvxN0-3" value="" style="endArrow=none;html=1;rounded=0;exitX=0.035;exitY=0.339;exitDx=0;exitDy=0;exitPerimeter=0;entryX=0.969;entryY=0.339;entryDx=0;entryDy=0;entryPerimeter=0;" edge="1" parent="1" source="v0IKyYrfHl6AA_qtvxN0-2" target="v0IKyYrfHl6AA_qtvxN0-2">
          <mxGeometry width="50" height="50" relative="1" as="geometry">
            <mxPoint x="390" y="360" as="sourcePoint" />
            <mxPoint x="440" y="310" as="targetPoint" />
          </mxGeometry>
        </mxCell>
        <mxCell id="v0IKyYrfHl6AA_qtvxN0-4" value="&lt;b&gt;현금을 인출&lt;/b&gt;" style="text;html=1;strokeColor=none;fillColor=none;align=center;verticalAlign=middle;whiteSpace=wrap;rounded=0;" vertex="1" parent="1">
          <mxGeometry x="125" y="170" width="90" height="30" as="geometry" />
        </mxCell>
        <mxCell id="v0IKyYrfHl6AA_qtvxN0-6" value="&amp;lt;&amp;lt;extend&amp;gt;&amp;gt;" style="edgeStyle=orthogonalEdgeStyle;rounded=0;orthogonalLoop=1;jettySize=auto;html=1;entryX=1;entryY=0.5;entryDx=0;entryDy=0;dashed=1;endArrow=open;endFill=0;labelPosition=center;verticalLabelPosition=top;align=center;verticalAlign=bottom;" edge="1" parent="1" source="v0IKyYrfHl6AA_qtvxN0-5" target="v0IKyYrfHl6AA_qtvxN0-2">
          <mxGeometry relative="1" as="geometry" />
        </mxCell>
        <mxCell id="v0IKyYrfHl6AA_qtvxN0-5" value="일부 환전" style="ellipse;whiteSpace=wrap;html=1;" vertex="1" parent="1">
          <mxGeometry x="414" y="185" width="120" height="60" as="geometry" />
        </mxCell>
      </root>
    </mxGraphModel>
  </diagram>
</mxfile>
